<mxfile host="app.diagrams.net" modified="2023-12-30T12:19:03.376Z" agent="Mozilla/5.0 (Windows NT 10.0; Win64; x64; rv:109.0) Gecko/20100101 Firefox/119.0" etag="DRgzBCJS3ky4fajxYuCZ" version="22.1.16" type="device">
  <diagram name="Page-1" id="lRLiD7JBKmetG9xe39BS">
    <mxGraphModel dx="1434" dy="746" grid="1" gridSize="10" guides="1" tooltips="1" connect="1" arrows="1" fold="1" page="1" pageScale="1" pageWidth="850" pageHeight="1100" math="0" shadow="0">
      <root>
        <mxCell id="0" />
        <mxCell id="1" parent="0" />
        <mxCell id="YS-DFAxWLqCsKcZg8tDh-1" value="ResUtad" style="swimlane;startSize=0;" vertex="1" parent="1">
          <mxGeometry x="230" y="100" width="340" height="510" as="geometry" />
        </mxCell>
        <mxCell id="YS-DFAxWLqCsKcZg8tDh-10" value="Registar Funcionario" style="ellipse;whiteSpace=wrap;html=1;" vertex="1" parent="YS-DFAxWLqCsKcZg8tDh-1">
          <mxGeometry x="40" y="240" width="70" height="50" as="geometry" />
        </mxCell>
        <mxCell id="YS-DFAxWLqCsKcZg8tDh-14" value="Registar Pedido" style="ellipse;whiteSpace=wrap;html=1;" vertex="1" parent="YS-DFAxWLqCsKcZg8tDh-1">
          <mxGeometry x="20" y="20" width="80" height="60" as="geometry" />
        </mxCell>
        <mxCell id="YS-DFAxWLqCsKcZg8tDh-17" value="Cancelar Pedido" style="ellipse;whiteSpace=wrap;html=1;" vertex="1" parent="YS-DFAxWLqCsKcZg8tDh-1">
          <mxGeometry x="20" y="90" width="80" height="60" as="geometry" />
        </mxCell>
        <mxCell id="YS-DFAxWLqCsKcZg8tDh-19" value="Enviar Notificação Admin" style="ellipse;whiteSpace=wrap;html=1;" vertex="1" parent="YS-DFAxWLqCsKcZg8tDh-1">
          <mxGeometry x="190" y="90" width="90" height="60" as="geometry" />
        </mxCell>
        <mxCell id="YS-DFAxWLqCsKcZg8tDh-20" value="in" style="endArrow=classic;html=1;rounded=0;exitX=0;exitY=0.5;exitDx=0;exitDy=0;entryX=1;entryY=0.5;entryDx=0;entryDy=0;" edge="1" parent="YS-DFAxWLqCsKcZg8tDh-1" source="YS-DFAxWLqCsKcZg8tDh-19" target="YS-DFAxWLqCsKcZg8tDh-17">
          <mxGeometry relative="1" as="geometry">
            <mxPoint x="110" y="180" as="sourcePoint" />
            <mxPoint x="210" y="180" as="targetPoint" />
          </mxGeometry>
        </mxCell>
        <mxCell id="YS-DFAxWLqCsKcZg8tDh-21" value="&amp;lt;&amp;lt;Include&amp;gt;&amp;gt;" style="edgeLabel;resizable=0;html=1;align=center;verticalAlign=middle;" connectable="0" vertex="1" parent="YS-DFAxWLqCsKcZg8tDh-20">
          <mxGeometry relative="1" as="geometry">
            <mxPoint x="-5" as="offset" />
          </mxGeometry>
        </mxCell>
        <mxCell id="YS-DFAxWLqCsKcZg8tDh-23" value="Fechar Conta" style="ellipse;whiteSpace=wrap;html=1;" vertex="1" parent="YS-DFAxWLqCsKcZg8tDh-1">
          <mxGeometry x="20" y="160" width="80" height="60" as="geometry" />
        </mxCell>
        <mxCell id="YS-DFAxWLqCsKcZg8tDh-25" value="Processar Pagamento" style="ellipse;whiteSpace=wrap;html=1;" vertex="1" parent="YS-DFAxWLqCsKcZg8tDh-1">
          <mxGeometry x="195" y="160" width="80" height="60" as="geometry" />
        </mxCell>
        <mxCell id="YS-DFAxWLqCsKcZg8tDh-26" value="" style="endArrow=classic;html=1;rounded=0;exitX=0;exitY=0.5;exitDx=0;exitDy=0;entryX=1;entryY=0.5;entryDx=0;entryDy=0;" edge="1" parent="YS-DFAxWLqCsKcZg8tDh-1" source="YS-DFAxWLqCsKcZg8tDh-25" target="YS-DFAxWLqCsKcZg8tDh-23">
          <mxGeometry relative="1" as="geometry">
            <mxPoint x="100" y="189.89" as="sourcePoint" />
            <mxPoint x="179.99999999999932" y="189.89" as="targetPoint" />
          </mxGeometry>
        </mxCell>
        <mxCell id="YS-DFAxWLqCsKcZg8tDh-27" value="&amp;lt;&amp;lt;Include&amp;gt;&amp;gt;" style="edgeLabel;resizable=0;html=1;align=center;verticalAlign=middle;" connectable="0" vertex="1" parent="YS-DFAxWLqCsKcZg8tDh-26">
          <mxGeometry relative="1" as="geometry">
            <mxPoint x="-8" as="offset" />
          </mxGeometry>
        </mxCell>
        <mxCell id="YS-DFAxWLqCsKcZg8tDh-29" value="Guardar Dados" style="ellipse;whiteSpace=wrap;html=1;" vertex="1" parent="YS-DFAxWLqCsKcZg8tDh-1">
          <mxGeometry x="135" y="268.75" width="60" height="37.5" as="geometry" />
        </mxCell>
        <mxCell id="YS-DFAxWLqCsKcZg8tDh-30" value="Emitir Fatura" style="ellipse;whiteSpace=wrap;html=1;" vertex="1" parent="YS-DFAxWLqCsKcZg8tDh-1">
          <mxGeometry x="260" y="268.75" width="60" height="40" as="geometry" />
        </mxCell>
        <mxCell id="YS-DFAxWLqCsKcZg8tDh-31" value="" style="endArrow=classic;html=1;rounded=0;exitX=0.5;exitY=1;exitDx=0;exitDy=0;entryX=0.5;entryY=0;entryDx=0;entryDy=0;" edge="1" parent="YS-DFAxWLqCsKcZg8tDh-1" source="YS-DFAxWLqCsKcZg8tDh-25" target="YS-DFAxWLqCsKcZg8tDh-29">
          <mxGeometry relative="1" as="geometry">
            <mxPoint x="170" y="330" as="sourcePoint" />
            <mxPoint x="270" y="330" as="targetPoint" />
          </mxGeometry>
        </mxCell>
        <mxCell id="YS-DFAxWLqCsKcZg8tDh-32" value="&amp;lt;&amp;lt;Extend&amp;gt;&amp;gt;" style="edgeLabel;resizable=0;html=1;align=center;verticalAlign=middle;" connectable="0" vertex="1" parent="YS-DFAxWLqCsKcZg8tDh-31">
          <mxGeometry relative="1" as="geometry" />
        </mxCell>
        <mxCell id="YS-DFAxWLqCsKcZg8tDh-33" value="" style="endArrow=classic;html=1;rounded=0;exitX=0.5;exitY=1;exitDx=0;exitDy=0;entryX=0.5;entryY=0;entryDx=0;entryDy=0;" edge="1" parent="YS-DFAxWLqCsKcZg8tDh-1" source="YS-DFAxWLqCsKcZg8tDh-25" target="YS-DFAxWLqCsKcZg8tDh-30">
          <mxGeometry relative="1" as="geometry">
            <mxPoint x="210" y="350" as="sourcePoint" />
            <mxPoint x="310" y="350" as="targetPoint" />
          </mxGeometry>
        </mxCell>
        <mxCell id="YS-DFAxWLqCsKcZg8tDh-34" value="&amp;lt;&amp;lt;Extend&amp;gt;&amp;gt;" style="edgeLabel;resizable=0;html=1;align=center;verticalAlign=middle;" connectable="0" vertex="1" parent="YS-DFAxWLqCsKcZg8tDh-33">
          <mxGeometry relative="1" as="geometry" />
        </mxCell>
        <mxCell id="YS-DFAxWLqCsKcZg8tDh-38" value="Calcular Comissoes" style="ellipse;whiteSpace=wrap;html=1;" vertex="1" parent="YS-DFAxWLqCsKcZg8tDh-1">
          <mxGeometry x="160" y="340" width="80" height="40" as="geometry" />
        </mxCell>
        <mxCell id="YS-DFAxWLqCsKcZg8tDh-40" value="Gerar Relatorios" style="ellipse;whiteSpace=wrap;html=1;" vertex="1" parent="YS-DFAxWLqCsKcZg8tDh-1">
          <mxGeometry x="170" y="390" width="70" height="40" as="geometry" />
        </mxCell>
        <mxCell id="YS-DFAxWLqCsKcZg8tDh-42" value="Faturacao" style="ellipse;whiteSpace=wrap;html=1;" vertex="1" parent="YS-DFAxWLqCsKcZg8tDh-1">
          <mxGeometry x="155" y="440" width="80" height="50" as="geometry" />
        </mxCell>
        <mxCell id="YS-DFAxWLqCsKcZg8tDh-48" value="Registar Gerente" style="ellipse;whiteSpace=wrap;html=1;" vertex="1" parent="YS-DFAxWLqCsKcZg8tDh-1">
          <mxGeometry x="40" y="350" width="70" height="40" as="geometry" />
        </mxCell>
        <mxCell id="YS-DFAxWLqCsKcZg8tDh-16" style="edgeStyle=orthogonalEdgeStyle;rounded=0;orthogonalLoop=1;jettySize=auto;html=1;entryX=0;entryY=0.5;entryDx=0;entryDy=0;" edge="1" parent="1" source="YS-DFAxWLqCsKcZg8tDh-3" target="YS-DFAxWLqCsKcZg8tDh-14">
          <mxGeometry relative="1" as="geometry" />
        </mxCell>
        <mxCell id="YS-DFAxWLqCsKcZg8tDh-18" style="edgeStyle=orthogonalEdgeStyle;rounded=0;orthogonalLoop=1;jettySize=auto;html=1;entryX=0;entryY=0.5;entryDx=0;entryDy=0;" edge="1" parent="1" source="YS-DFAxWLqCsKcZg8tDh-3" target="YS-DFAxWLqCsKcZg8tDh-17">
          <mxGeometry relative="1" as="geometry" />
        </mxCell>
        <mxCell id="YS-DFAxWLqCsKcZg8tDh-24" style="edgeStyle=orthogonalEdgeStyle;rounded=0;orthogonalLoop=1;jettySize=auto;html=1;entryX=0;entryY=0.5;entryDx=0;entryDy=0;" edge="1" parent="1" source="YS-DFAxWLqCsKcZg8tDh-3" target="YS-DFAxWLqCsKcZg8tDh-23">
          <mxGeometry relative="1" as="geometry" />
        </mxCell>
        <mxCell id="YS-DFAxWLqCsKcZg8tDh-3" value="&lt;div&gt;Funcionario&lt;/div&gt;&lt;div&gt;&lt;br&gt;&lt;/div&gt;" style="shape=umlActor;verticalLabelPosition=bottom;verticalAlign=top;html=1;outlineConnect=0;" vertex="1" parent="1">
          <mxGeometry x="70" y="160" width="30" height="60" as="geometry" />
        </mxCell>
        <mxCell id="YS-DFAxWLqCsKcZg8tDh-12" style="edgeStyle=orthogonalEdgeStyle;rounded=0;orthogonalLoop=1;jettySize=auto;html=1;entryX=0;entryY=0.5;entryDx=0;entryDy=0;" edge="1" parent="1" source="YS-DFAxWLqCsKcZg8tDh-4" target="YS-DFAxWLqCsKcZg8tDh-10">
          <mxGeometry relative="1" as="geometry" />
        </mxCell>
        <mxCell id="YS-DFAxWLqCsKcZg8tDh-47" style="edgeStyle=orthogonalEdgeStyle;rounded=0;orthogonalLoop=1;jettySize=auto;html=1;" edge="1" parent="1" source="YS-DFAxWLqCsKcZg8tDh-4" target="YS-DFAxWLqCsKcZg8tDh-3">
          <mxGeometry relative="1" as="geometry" />
        </mxCell>
        <mxCell id="YS-DFAxWLqCsKcZg8tDh-4" value="&lt;div&gt;Gerente&lt;/div&gt;&lt;div&gt;&lt;br&gt;&lt;/div&gt;" style="shape=umlActor;verticalLabelPosition=bottom;verticalAlign=top;html=1;outlineConnect=0;" vertex="1" parent="1">
          <mxGeometry x="70" y="325" width="30" height="60" as="geometry" />
        </mxCell>
        <mxCell id="YS-DFAxWLqCsKcZg8tDh-11" style="edgeStyle=orthogonalEdgeStyle;rounded=0;orthogonalLoop=1;jettySize=auto;html=1;" edge="1" parent="1" source="YS-DFAxWLqCsKcZg8tDh-5">
          <mxGeometry relative="1" as="geometry">
            <mxPoint x="270" y="470" as="targetPoint" />
          </mxGeometry>
        </mxCell>
        <mxCell id="YS-DFAxWLqCsKcZg8tDh-46" style="edgeStyle=orthogonalEdgeStyle;rounded=0;orthogonalLoop=1;jettySize=auto;html=1;" edge="1" parent="1" source="YS-DFAxWLqCsKcZg8tDh-5" target="YS-DFAxWLqCsKcZg8tDh-4">
          <mxGeometry relative="1" as="geometry" />
        </mxCell>
        <mxCell id="YS-DFAxWLqCsKcZg8tDh-5" value="Admin" style="shape=umlActor;verticalLabelPosition=bottom;verticalAlign=top;html=1;outlineConnect=0;" vertex="1" parent="1">
          <mxGeometry x="70" y="440" width="30" height="60" as="geometry" />
        </mxCell>
        <mxCell id="YS-DFAxWLqCsKcZg8tDh-39" style="edgeStyle=orthogonalEdgeStyle;rounded=0;orthogonalLoop=1;jettySize=auto;html=1;entryX=1;entryY=0.5;entryDx=0;entryDy=0;" edge="1" parent="1" source="YS-DFAxWLqCsKcZg8tDh-35" target="YS-DFAxWLqCsKcZg8tDh-38">
          <mxGeometry relative="1" as="geometry" />
        </mxCell>
        <mxCell id="YS-DFAxWLqCsKcZg8tDh-41" style="edgeStyle=orthogonalEdgeStyle;rounded=0;orthogonalLoop=1;jettySize=auto;html=1;entryX=1;entryY=0.5;entryDx=0;entryDy=0;" edge="1" parent="1" source="YS-DFAxWLqCsKcZg8tDh-35" target="YS-DFAxWLqCsKcZg8tDh-40">
          <mxGeometry relative="1" as="geometry" />
        </mxCell>
        <mxCell id="YS-DFAxWLqCsKcZg8tDh-43" style="edgeStyle=orthogonalEdgeStyle;rounded=0;orthogonalLoop=1;jettySize=auto;html=1;entryX=1;entryY=0.5;entryDx=0;entryDy=0;" edge="1" parent="1" source="YS-DFAxWLqCsKcZg8tDh-35" target="YS-DFAxWLqCsKcZg8tDh-42">
          <mxGeometry relative="1" as="geometry">
            <Array as="points">
              <mxPoint x="540" y="490" />
              <mxPoint x="540" y="565" />
            </Array>
          </mxGeometry>
        </mxCell>
        <mxCell id="YS-DFAxWLqCsKcZg8tDh-35" value="1x /semana" style="shape=umlActor;verticalLabelPosition=bottom;verticalAlign=top;html=1;outlineConnect=0;" vertex="1" parent="1">
          <mxGeometry x="610" y="460" width="30" height="60" as="geometry" />
        </mxCell>
      </root>
    </mxGraphModel>
  </diagram>
</mxfile>
